<?xml version="1.0" encoding="UTF-8" standalone="no"?>
<!DOCTYPE svg PUBLIC "-//W3C//DTD SVG 1.1//EN" "http://www.w3.org/Graphics/SVG/1.1/DTD/svg11.dtd">
<svg width="100%" height="100%" viewBox="0 0 800 800" version="1.1" xmlns="http://www.w3.org/2000/svg" xmlns:xlink="http://www.w3.org/1999/xlink" xml:space="preserve" xmlns:serif="http://www.serif.com/" style="fill-rule:evenodd;clip-rule:evenodd;stroke-linecap:round;stroke-linejoin:round;stroke-miterlimit:1.5;">
    <g id="Rocket" transform="matrix(0.973396,0.229128,-0.229128,0.973396,204.392,-37.0094)">
        <g transform="matrix(1.03279,5.55112e-17,-2.22045e-16,1.73671,38.266,-67.6659)">
            <path d="M136.212,168.534L136.798,168.534C137.918,168.534 138.306,168.325 138.246,167.961L138.25,293.108C138.25,293.744 138.031,294.374 137.606,294.958C132.293,302.264 127.478,308.954 123.075,314.96C121.893,316.57 119.218,317.611 116.264,317.611C104.181,317.611 72.831,317.611 59.81,317.611C56.28,317.611 53.09,316.361 51.695,314.434C47.142,308.111 42.646,301.512 38.119,294.726C37.831,294.295 37.684,293.835 37.684,293.372L37.684,168.56L135.729,168.56L136.212,168.534Z" style="fill:rgb(125,130,127);"/>
            <clipPath id="_clip1">
                <path d="M136.212,168.534L136.798,168.534C137.918,168.534 138.306,168.325 138.246,167.961L138.25,293.108C138.25,293.744 138.031,294.374 137.606,294.958C132.293,302.264 127.478,308.954 123.075,314.96C121.893,316.57 119.218,317.611 116.264,317.611C104.181,317.611 72.831,317.611 59.81,317.611C56.28,317.611 53.09,316.361 51.695,314.434C47.142,308.111 42.646,301.512 38.119,294.726C37.831,294.295 37.684,293.835 37.684,293.372L37.684,168.56L135.729,168.56L136.212,168.534Z"/>
            </clipPath>
            <g clip-path="url(#_clip1)">
                <g transform="matrix(0.968251,-3.09487e-17,1.23795e-16,0.575803,17.1264,18.1385)">
                    <rect x="8.882" y="487.259" width="128.654" height="87.96" style="fill:rgb(0,255,102);"/>
                </g>
                <g transform="matrix(0.967407,0.0240269,-0.0462968,0.659227,51.6402,12.047)">
                    <rect x="52.187" y="134.805" width="157.665" height="338.756" style="fill-opacity:0.278431;"/>
                </g>
            </g>
        </g>
        <g transform="matrix(1.03279,5.55112e-17,-2.22045e-16,1.73671,38.266,-67.6659)">
            <path d="M38.238,153.232C38.539,151.971 38.994,150.72 39.584,149.49C50.772,126.423 68.809,102.701 87.967,103.305C108.85,103.963 129.929,130.653 137.785,152.27L138.104,153.463C137.95,153.307 137.589,153.222 136.798,153.206L39.498,153.206L39.043,153.232L38.238,153.232Z" style="fill:rgb(125,130,127);"/>
            <clipPath id="_clip2">
                <path d="M38.238,153.232C38.539,151.971 38.994,150.72 39.584,149.49C50.772,126.423 68.809,102.701 87.967,103.305C108.85,103.963 129.929,130.653 137.785,152.27L138.104,153.463C137.95,153.307 137.589,153.222 136.798,153.206L39.498,153.206L39.043,153.232L38.238,153.232Z"/>
            </clipPath>
            <g clip-path="url(#_clip2)">
                <g transform="matrix(0.967407,0.0240269,-0.0462968,0.659227,51.6402,12.047)">
                    <rect x="52.187" y="134.805" width="157.665" height="338.756" style="fill-opacity:0.278431;"/>
                </g>
            </g>
        </g>
        <g transform="matrix(0.665816,0,0,1.02859,2.25443,64.3144)">
            <path d="M113.388,130.326L266.227,130.329C267.348,130.34 267.994,130.497 268.299,130.775L268.341,130.948L268.396,131.634C267.661,133.781 261.476,138.335 261.476,143.615C261.476,149.121 268.202,153.864 268.524,155.884L268.524,155.953C268.604,156.486 268.181,156.827 266.987,156.904L115.053,156.904C107.901,156.904 116.49,150.19 116.49,142.844C116.49,138.626 112.825,130.348 113.388,130.326Z" style="fill:rgb(0,255,102);"/>
            <clipPath id="_clip3">
                <path d="M113.388,130.326L266.227,130.329C267.348,130.34 267.994,130.497 268.299,130.775L268.341,130.948L268.396,131.634C267.661,133.781 261.476,138.335 261.476,143.615C261.476,149.121 268.202,153.864 268.524,155.884L268.524,155.953C268.604,156.486 268.181,156.827 266.987,156.904L115.053,156.904C107.901,156.904 116.49,150.19 116.49,142.844C116.49,138.626 112.825,130.348 113.388,130.326Z"/>
            </clipPath>
            <g clip-path="url(#_clip3)">
                <g transform="matrix(1.50061,0.0405678,-0.071814,1.11306,134.189,-107.971)">
                    <rect x="52.187" y="134.805" width="157.665" height="338.756" style="fill-opacity:0.278431;"/>
                </g>
            </g>
        </g>
        <g transform="matrix(1,0,0,-1,-109.818,558.914)">
            <path d="M240.384,121.488C240.101,119.618 238.494,118.235 236.602,118.235C234.711,118.234 233.103,119.617 232.82,121.487C226.268,163.704 213.495,251.655 213.495,295.822C213.495,308.575 223.849,318.929 236.602,318.929C249.355,318.929 259.708,308.575 259.708,295.822C259.708,251.655 246.936,163.706 240.384,121.488Z" style="fill:rgb(0,255,102);"/>
        </g>
        <g id="Fire" transform="matrix(-0.997728,-0.0673686,0.0673686,-0.997728,685.484,1095.36)">
            <path d="M600.934,427.871C600.512,427.099 599.702,426.619 598.822,426.619C597.942,426.619 597.133,427.1 596.71,427.872C588.531,442.838 559.391,497.958 559.391,523.64C559.391,545.403 577.06,563.072 598.822,563.072C620.585,563.072 638.254,545.403 638.254,523.64C638.254,497.957 609.114,442.837 600.934,427.871Z" style="fill:rgb(255,100,0);"/>
            <g transform="matrix(0.663098,0,0,0.641467,202.343,195.074)">
                <path d="M601.816,429.419C601.207,428.302 600.063,427.611 598.822,427.611C597.582,427.611 596.438,428.302 595.829,429.418C586.63,446.163 559.391,497.811 559.391,522.31C559.391,544.807 577.06,563.072 598.822,563.072C620.585,563.072 638.254,544.807 638.254,522.31C638.254,497.811 611.015,446.163 601.816,429.419Z" style="fill:rgb(231,153,31);"/>
            </g>
        </g>
    </g>
    <g id="Chet" transform="matrix(1,0,0,1,-6.46092,-36.5366)">
        <g id="Legs" transform="matrix(1,0,0,1,-9.39346,-9.83584)">
            <g transform="matrix(0.959532,0.2816,-0.2816,0.959532,177.704,-104.557)">
                <path d="M340.115,540.788L299.135,540.788C299.135,540.788 299.135,650.105 299.135,692.773C299.135,702.036 306.644,709.545 315.907,709.545C317.631,709.545 319.39,709.545 321.135,709.545C331.617,709.545 340.115,701.048 340.115,690.566C340.115,646.462 340.115,540.788 340.115,540.788Z" style="fill:rgb(234,199,167);"/>
                <clipPath id="_clip4">
                    <path d="M340.115,540.788L299.135,540.788C299.135,540.788 299.135,650.105 299.135,692.773C299.135,702.036 306.644,709.545 315.907,709.545C317.631,709.545 319.39,709.545 321.135,709.545C331.617,709.545 340.115,701.048 340.115,690.566C340.115,646.462 340.115,540.788 340.115,540.788Z"/>
                </clipPath>
                <g clip-path="url(#_clip4)">
                    <g transform="matrix(0.999966,0.00822811,-0.0147851,1.79684,216.817,332.007)">
                        <path d="M129.687,130.753C129.687,127.108 124.37,124.149 117.82,124.149L94.085,124.149C87.535,124.149 82.217,127.108 82.217,130.753L82.217,190.095C82.217,193.74 87.535,196.7 94.085,196.7L117.82,196.7C124.37,196.7 129.687,193.74 129.687,190.095L129.687,130.753Z" style="fill:rgb(57,101,155);"/>
                    </g>
                </g>
            </g>
            <g transform="matrix(0.965194,0.261536,-0.261536,0.965194,235.41,-89.9122)">
                <path d="M340.115,540.788L299.135,540.788C299.135,540.788 299.135,645.572 299.135,690.004C299.135,695.187 301.193,700.157 304.858,703.822C308.523,707.486 313.493,709.545 318.676,709.545C318.834,709.545 318.992,709.545 319.15,709.545C324.71,709.545 330.042,707.336 333.974,703.405C337.906,699.473 340.115,694.14 340.115,688.58C340.115,643.376 340.115,540.788 340.115,540.788Z" style="fill:rgb(234,199,167);"/>
                <clipPath id="_clip5">
                    <path d="M340.115,540.788L299.135,540.788C299.135,540.788 299.135,645.572 299.135,690.004C299.135,695.187 301.193,700.157 304.858,703.822C308.523,707.486 313.493,709.545 318.676,709.545C318.834,709.545 318.992,709.545 319.15,709.545C324.71,709.545 330.042,707.336 333.974,703.405C337.906,699.473 340.115,694.14 340.115,688.58C340.115,643.376 340.115,540.788 340.115,540.788Z"/>
                </clipPath>
                <g clip-path="url(#_clip5)">
                    <g transform="matrix(0.999577,0.0290717,-0.052239,1.79614,221.588,329.401)">
                        <path d="M129.687,130.753C129.687,127.108 124.37,124.149 117.82,124.149L94.085,124.149C87.535,124.149 82.217,127.108 82.217,130.753L82.217,190.095C82.217,193.74 87.535,196.7 94.085,196.7L117.82,196.7C124.37,196.7 129.687,193.74 129.687,190.095L129.687,130.753Z" style="fill:rgb(57,101,155);"/>
                    </g>
                </g>
            </g>
        </g>
        <g transform="matrix(0.667941,0.143247,-0.209693,0.977767,213.394,-35.3485)">
            <path d="M463.865,285.041L268.572,285.041C268.572,285.041 268.572,415.213 268.572,485.571C268.572,509.82 297.349,529.479 332.847,529.479C357.379,529.479 385.105,529.479 408.714,529.479C439.173,529.479 463.865,512.611 463.865,491.804C463.865,423.231 463.865,285.041 463.865,285.041Z"/>
            <clipPath id="_clip6">
                <path d="M463.865,285.041L268.572,285.041C268.572,285.041 268.572,415.213 268.572,485.571C268.572,509.82 297.349,529.479 332.847,529.479C357.379,529.479 385.105,529.479 408.714,529.479C439.173,529.479 463.865,512.611 463.865,491.804C463.865,423.231 463.865,285.041 463.865,285.041Z"/>
            </clipPath>
            <g clip-path="url(#_clip6)">
                <g transform="matrix(1.15792,-0.0246478,-0.0261601,-0.916046,239.77,456.425)">
                    <path d="M111.247,145.016L138.388,185.718L84.105,185.718L111.247,145.016Z" style="fill:rgb(234,199,167);"/>
                </g>
            </g>
        </g>
        <g transform="matrix(0.781774,0.156988,-0.19688,0.980428,-14.5621,-89.0385)">
            <path d="M692.81,414.192C692.81,411.037 689.598,408.475 685.641,408.475L490.887,408.475C486.93,408.475 483.718,411.037 483.718,414.192L483.718,425.625C483.718,428.779 486.93,431.341 490.887,431.341L685.641,431.341C689.598,431.341 692.81,428.779 692.81,425.625L692.81,414.192Z" style="fill:rgb(125,130,127);"/>
            <clipPath id="_clip7">
                <path d="M692.81,414.192C692.81,411.037 689.598,408.475 685.641,408.475L490.887,408.475C486.93,408.475 483.718,411.037 483.718,414.192L483.718,425.625C483.718,428.779 486.93,431.341 490.887,431.341L685.641,431.341C689.598,431.341 692.81,428.779 692.81,425.625L692.81,414.192Z"/>
            </clipPath>
            <g clip-path="url(#_clip7)">
                <g transform="matrix(0.664841,0.160651,-0.416768,1.09663,557.26,7.66048)">
                    <rect x="52.187" y="134.805" width="157.665" height="338.756" style="fill-opacity:0.278431;"/>
                </g>
            </g>
        </g>
        <g id="Face" transform="matrix(0.668308,0.142869,-0.19029,0.890134,203.532,9.34581)">
            <g id="Anteni">
                <g transform="matrix(1.37733,-0.370915,0.494029,1.0341,-255.39,136.274)">
                    <path d="M356.504,133.639C356.504,133.091 356.287,132.566 355.9,132.179C355.512,131.792 354.987,131.575 354.44,131.575C354.439,131.575 354.438,131.575 354.436,131.575C353.889,131.575 353.364,131.792 352.977,132.179C352.59,132.566 352.372,133.091 352.372,133.639C352.372,140.946 352.372,165.151 352.372,165.151L356.504,165.151C356.504,165.151 356.504,140.946 356.504,133.639Z" style="fill:rgb(234,199,167);"/>
                </g>
                <g transform="matrix(0.978065,0.270663,-0.495243,1.00879,132.012,-97.2837)">
                    <path d="M374.056,133.097C374.056,132.636 373.804,132.195 373.357,131.869C372.909,131.543 372.302,131.36 371.669,131.36C371.668,131.36 371.666,131.36 371.664,131.36C371.031,131.36 370.424,131.543 369.977,131.869C369.529,132.195 369.278,132.636 369.278,133.097C369.278,139.957 369.278,164.786 369.278,164.786L374.056,164.786C374.056,164.786 374.056,139.957 374.056,133.097Z" style="fill:rgb(234,199,167);"/>
                </g>
            </g>
            <g transform="matrix(-0.916494,0.00464823,-0.00516134,-1.01766,562.109,834.561)">
                <path d="M102.437,572.017C102.437,626.875 150.547,671.346 209.893,671.346C269.239,671.346 317.348,626.875 317.348,572.017L209.893,572.017L102.437,572.017Z" style="fill:rgb(234,199,167);"/>
                <clipPath id="_clip8">
                    <path d="M102.437,572.017C102.437,626.875 150.547,671.346 209.893,671.346C269.239,671.346 317.348,626.875 317.348,572.017L209.893,572.017L102.437,572.017Z"/>
                </clipPath>
                <g clip-path="url(#_clip8)">
                    <g transform="matrix(0.340643,0.0731663,-0.169019,0.344785,168.674,421.991)">
                        <path d="M619.276,511.006C618.37,501.289 606.255,493.603 591.609,493.452C576.963,493.302 564.834,500.74 563.911,510.438C562.575,517.422 561.775,523.779 561.775,528.997C561.775,538.94 575.112,547.014 591.541,547.014C607.969,547.014 621.306,538.94 621.306,528.997C621.306,523.921 620.549,517.767 619.276,511.006Z" style="fill:rgb(228,228,228);"/>
                    </g>
                    <g id="_-Curve-" serif:id="(Curve)" transform="matrix(0.330448,-0.115618,0.233415,0.290376,-161.314,572.327)">
                        <path d="M617.886,504.266C616.625,493.859 605.155,486.05 591.433,486.254C577.71,486.459 566.258,494.609 565.018,505.054C563.028,514.149 561.775,522.466 561.775,528.997C561.775,538.94 575.112,547.014 591.541,547.014C607.969,547.014 621.306,538.94 621.306,528.997C621.306,522.278 619.98,513.669 617.886,504.266Z" style="fill:rgb(228,228,228);"/>
                    </g>
                    <g transform="matrix(-0.113739,-0.537075,1.24369,-0.113596,-332.898,1034.81)">
                        <path d="M603.682,455.888C602.567,452.168 597.477,449.464 591.552,449.445C585.628,449.426 580.539,452.098 579.426,455.812C571.187,479.792 561.775,511.102 561.775,528.997C561.775,538.94 575.112,547.014 591.541,547.014C607.969,547.014 621.306,538.94 621.306,528.997C621.306,511.122 611.914,479.859 603.682,455.888Z" style="fill:rgb(228,228,228);"/>
                    </g>
                </g>
            </g>
            <g transform="matrix(1,0,0,1,231.223,65.8644)">
                <ellipse cx="99.972" cy="133.834" rx="8.535" ry="8.043" style="fill:white;"/>
            </g>
            <g transform="matrix(1,0,0,1,296.229,66.133)">
                <ellipse cx="99.972" cy="133.834" rx="8.535" ry="8.043" style="fill:white;"/>
            </g>
        </g>
        <g id="Arms">
            <g id="Left" transform="matrix(0.816758,0.57698,-0.57698,0.816758,304.362,-80.3011)">
                <g transform="matrix(0.694326,0,0,1.39972,128.669,19.2938)">
                    <path d="M188.654,201.176C188.654,198.098 183.616,195.599 177.411,195.599L154.926,195.599C148.721,195.599 143.683,198.098 143.683,201.176L142.658,301.54C142.658,304.618 156.061,316.727 162.556,318.1L173.533,318.313C181.185,316.359 187.155,300.493 187.155,297.415L188.654,201.176Z" style="fill:rgb(234,199,167);"/>
                </g>
                <g transform="matrix(1,0,0,1,-249.332,-3.44724)">
                    <rect x="472.036" y="289.04" width="39.04" height="64.083" style="fill:rgb(12,12,12);"/>
                </g>
            </g>
            <g id="Right" transform="matrix(-0.794468,-0.607306,0.607306,-0.794468,663.062,873.861)">
                <g transform="matrix(0.694326,0,0,1.39972,374.094,16.9159)">
                    <path d="M188.654,201.176C188.654,198.098 183.616,195.599 177.411,195.599L154.926,195.599C148.721,195.599 143.683,198.098 143.683,201.176L144.956,303.253C144.956,306.331 153.845,318.673 160.05,318.673L171.012,318.733C177.217,318.733 189.735,306.267 189.735,303.189L188.654,201.176Z" style="fill:rgb(234,199,167);"/>
                </g>
                <rect x="472.036" y="289.04" width="39.04" height="64.083" style="fill:rgb(12,12,12);"/>
            </g>
        </g>
    </g>
    <g transform="matrix(0.979457,0,0,0.984045,7.27729,2.93518)">
        <path d="M370.612,193.96L354.241,183.965" style="fill:none;stroke:black;stroke-width:3.06px;"/>
    </g>
    <g id="Breifcase" transform="matrix(0.839268,0.543718,-0.543718,0.839268,223.399,-535.125)">
        <path d="M723.27,340.985C723.27,338.62 722.33,336.351 720.658,334.679C718.985,333.006 716.716,332.066 714.351,332.066C691.559,332.066 631.531,332.066 610.954,332.066C607.067,332.066 603.916,335.218 603.916,339.105C603.916,353.957 603.916,388.279 603.916,402.239C603.916,405.592 606.634,408.31 609.987,408.31C629.894,408.31 693.186,408.31 715.44,408.31C719.764,408.31 723.27,404.805 723.27,400.48C723.27,386.204 723.27,356.03 723.27,340.985Z" style="fill:rgb(28,19,12);"/>
        <g transform="matrix(0.866954,0,0,0.901189,103.961,-72.118)">
            <path d="M644.478,492.537C664.69,492.537 681.1,508.796 681.1,528.823C681.1,548.85 664.69,565.109 644.478,565.109C624.265,565.109 607.855,548.85 607.855,528.823C607.855,508.796 624.265,492.537 644.478,492.537ZM644.478,510.68C654.584,510.68 662.789,518.81 662.789,528.823C662.789,538.836 654.584,546.966 644.478,546.966C634.371,546.966 626.166,538.836 626.166,528.823C626.166,518.81 634.371,510.68 644.478,510.68Z" style="fill:rgb(28,19,12);"/>
        </g>
    </g>
    <g transform="matrix(0.885303,-0.136506,0.0682251,0.442472,38.7604,144.365)">
        <path d="M377.27,209.92C377.27,209.306 377.021,208.808 376.714,208.808L362.645,208.808C362.338,208.808 362.089,209.306 362.089,209.92L362.089,212.144C362.089,212.758 362.338,213.256 362.645,213.256L376.714,213.256C377.021,213.256 377.27,212.758 377.27,212.144L377.27,209.92Z" style="fill:rgb(228,228,228);"/>
    </g>
    <g transform="matrix(0.837913,0.323674,-0.167589,0.433847,154.742,-14.615)">
        <path d="M377.27,209.92C377.27,209.306 377.012,208.808 376.694,208.808L362.665,208.808C362.347,208.808 362.089,209.306 362.089,209.92L362.089,212.144C362.089,212.758 362.347,213.256 362.665,213.256L376.694,213.256C377.012,213.256 377.27,212.758 377.27,212.144L377.27,209.92Z" style="fill:rgb(228,228,228);"/>
    </g>
    <g transform="matrix(0.892535,0.226312,-0.245783,0.969325,105.815,-99.2768)">
        <path d="M382.271,216.09C382.271,214.008 380.435,212.318 378.175,212.318L360.794,212.318C358.533,212.318 356.698,214.008 356.698,216.09L356.698,223.633C356.698,225.715 358.533,227.405 360.794,227.405L378.175,227.405C380.435,227.405 382.271,225.715 382.271,223.633L382.271,216.09Z" style="fill:none;stroke:black;stroke-width:3.12px;"/>
    </g>
    <g transform="matrix(0.892535,0.226312,-0.245783,0.969325,148.053,-88.4059)">
        <path d="M382.271,216.09C382.271,214.008 380.435,212.318 378.175,212.318L360.794,212.318C358.533,212.318 356.698,214.008 356.698,216.09L356.698,223.633C356.698,225.715 358.533,227.405 360.794,227.405L378.175,227.405C380.435,227.405 382.271,225.715 382.271,223.633L382.271,216.09Z" style="fill:none;stroke:black;stroke-width:3.12px;"/>
    </g>
    <g transform="matrix(0.892535,0.226312,-0.245783,0.969325,110.018,-98.8662)">
        <path d="M378.865,221.059C401.416,220.897 399.53,221.055 399.53,221.055" style="fill:none;stroke:black;stroke-width:3.12px;"/>
    </g>
    <g transform="matrix(1.1342,0,0,0.998632,-59.4845,0.954925)">
        <path d="M436.337,211.239L452.78,196.824" style="fill:none;stroke:black;stroke-width:2.81px;"/>
    </g>
</svg>
